<?xml version="1.0" encoding="UTF-8" standalone="no"?>
<!DOCTYPE svg PUBLIC "-//W3C//DTD SVG 1.1//EN"
 "http://www.w3.org/Graphics/SVG/1.1/DTD/svg11.dtd">
<!-- Generated by graphviz version 15.0.0 (20260523.1842)
 -->
<!-- Title: architecture Pages: 1 -->
<svg width="308pt" height="65pt"
 viewBox="0.00 0.00 308.00 65.00" xmlns="http://www.w3.org/2000/svg" xmlns:xlink="http://www.w3.org/1999/xlink">
<g id="graph0" class="graph" transform="scale(1 1) rotate(0) translate(14.4 50.4)">
<title>architecture</title>
<polygon fill="white" stroke="none" points="-14.4,14.4 -14.4,-50.4 294,-50.4 294,14.4 -14.4,14.4"/>
<!-- render/callgraph.js -->
<g id="node1" class="node">
<title>render/callgraph.js</title>
<path fill="#f8fafc" stroke="#cbd5e1" stroke-width="1.1" d="M119.55,-36C119.55,-36 12,-36 12,-36 6,-36 0,-30 0,-24 0,-24 0,-12 0,-12 0,-6 6,0 12,0 12,0 119.55,0 119.55,0 125.55,0 131.55,-6 131.55,-12 131.55,-12 131.55,-24 131.55,-24 131.55,-30 125.55,-36 119.55,-36"/>
<text xml:space="preserve" text-anchor="middle" x="65.78" y="-14.3" font-family="Helvetica,sans-Serif" font-size="11.00" fill="#334155">render/callgraph.js</text>
</g>
<!-- test/run.js -->
<g id="node2" class="node">
<title>test/run.js</title>
<path fill="#f8fafc" stroke="#cbd5e1" stroke-width="1.1" stroke-dasharray="5,2" d="M267.6,-36C267.6,-36 206.55,-36 206.55,-36 200.55,-36 194.55,-30 194.55,-24 194.55,-24 194.55,-12 194.55,-12 194.55,-6 200.55,0 206.55,0 206.55,0 267.6,0 267.6,0 273.6,0 279.6,-6 279.6,-12 279.6,-12 279.6,-24 279.6,-24 279.6,-30 273.6,-36 267.6,-36"/>
<text xml:space="preserve" text-anchor="middle" x="237.08" y="-14.3" font-family="Helvetica,sans-Serif" font-size="11.00" fill="#334155">test/run.js</text>
</g>
<!-- render/callgraph.js&#45;&gt;test/run.js -->
<g id="edge1" class="edge">
<title>render/callgraph.js&#45;&gt;test/run.js</title>
<path fill="none" stroke="#94a3b8" d="M131.75,-18C150.02,-18 169.6,-18 186.79,-18"/>
<polygon fill="#94a3b8" stroke="#94a3b8" points="186.49,-20.1 192.49,-18 186.49,-15.9 186.49,-20.1"/>
<text xml:space="preserve" text-anchor="middle" x="163.05" y="-21.95" font-family="Times,serif" font-size="14.00">2</text>
</g>
</g>
</svg>
