<?xml version="1.0" encoding="UTF-8" standalone="no"?>
<!DOCTYPE svg PUBLIC "-//W3C//DTD SVG 1.1//EN"
 "http://www.w3.org/Graphics/SVG/1.1/DTD/svg11.dtd">
<!-- Generated by graphviz version 15.0.0 (20260523.1842)
 -->
<!-- Title: callgraph Pages: 1 -->
<svg width="362pt" height="260pt"
 viewBox="0.00 0.00 362.00 260.00" xmlns="http://www.w3.org/2000/svg" xmlns:xlink="http://www.w3.org/1999/xlink">
<g id="graph0" class="graph" transform="scale(1 1) rotate(0) translate(4 256)">
<title>callgraph</title>
<polygon fill="white" stroke="none" points="-4,4 -4,-256 358,-256 358,4 -4,4"/>
<!-- buildDot -->
<g id="node1" class="node">
<title>buildDot</title>
<path fill="#c7d2fe" stroke="black" d="M167.5,-144C167.5,-144 123.75,-144 123.75,-144 117.75,-144 111.75,-138 111.75,-132 111.75,-132 111.75,-120 111.75,-120 111.75,-114 117.75,-108 123.75,-108 123.75,-108 167.5,-108 167.5,-108 173.5,-108 179.5,-114 179.5,-120 179.5,-120 179.5,-132 179.5,-132 179.5,-138 173.5,-144 167.5,-144"/>
<text xml:space="preserve" text-anchor="middle" x="145.62" y="-122.3" font-family="Helvetica,sans-Serif" font-weight="bold" font-size="11.00">buildDot</text>
</g>
<!-- dedupeNodes -->
<g id="node4" class="node">
<title>dedupeNodes</title>
<path fill="#eef2ff" stroke="black" d="M318.75,-252C318.75,-252 251.75,-252 251.75,-252 245.75,-252 239.75,-246 239.75,-240 239.75,-240 239.75,-228 239.75,-228 239.75,-222 245.75,-216 251.75,-216 251.75,-216 318.75,-216 318.75,-216 324.75,-216 330.75,-222 330.75,-228 330.75,-228 330.75,-240 330.75,-240 330.75,-246 324.75,-252 318.75,-252"/>
<text xml:space="preserve" text-anchor="middle" x="285.25" y="-230.3" font-family="Helvetica,sans-Serif" font-size="11.00">dedupeNodes</text>
</g>
<!-- buildDot&#45;&gt;dedupeNodes -->
<g id="edge3" class="edge">
<title>buildDot&#45;&gt;dedupeNodes</title>
<path fill="none" stroke="#6366f1" d="M158.52,-144.35C171.06,-162.43 192.3,-189.76 216.5,-207 221.25,-210.38 226.48,-213.43 231.87,-216.14"/>
<polygon fill="#6366f1" stroke="#6366f1" points="230.54,-218.22 237.92,-218.99 232.63,-213.79 230.54,-218.22"/>
</g>
<!-- dedupeEdges -->
<g id="node5" class="node">
<title>dedupeEdges</title>
<path fill="#eef2ff" stroke="black" d="M318,-198C318,-198 252.5,-198 252.5,-198 246.5,-198 240.5,-192 240.5,-186 240.5,-186 240.5,-174 240.5,-174 240.5,-168 246.5,-162 252.5,-162 252.5,-162 318,-162 318,-162 324,-162 330,-168 330,-174 330,-174 330,-186 330,-186 330,-192 324,-198 318,-198"/>
<text xml:space="preserve" text-anchor="middle" x="285.25" y="-176.3" font-family="Helvetica,sans-Serif" font-size="11.00">dedupeEdges</text>
</g>
<!-- buildDot&#45;&gt;dedupeEdges -->
<g id="edge4" class="edge">
<title>buildDot&#45;&gt;dedupeEdges</title>
<path fill="none" stroke="#6366f1" d="M179.94,-139.07C195.6,-145.22 214.64,-152.69 232.14,-159.55"/>
<polygon fill="#6366f1" stroke="#6366f1" points="231.24,-161.83 238.65,-162.11 233.03,-157.27 231.24,-161.83"/>
</g>
<!-- allocateRenderBudget -->
<g id="node6" class="node">
<title>allocateRenderBudget</title>
<path fill="#eef2ff" stroke="black" d="M342,-144C342,-144 228.5,-144 228.5,-144 222.5,-144 216.5,-138 216.5,-132 216.5,-132 216.5,-120 216.5,-120 216.5,-114 222.5,-108 228.5,-108 228.5,-108 342,-108 342,-108 348,-108 354,-114 354,-120 354,-120 354,-132 354,-132 354,-138 348,-144 342,-144"/>
<text xml:space="preserve" text-anchor="middle" x="285.25" y="-122.3" font-family="Helvetica,sans-Serif" font-size="11.00">allocateRenderBudget</text>
</g>
<!-- buildDot&#45;&gt;allocateRenderBudget -->
<g id="edge5" class="edge">
<title>buildDot&#45;&gt;allocateRenderBudget</title>
<path fill="none" stroke="#6366f1" d="M179.94,-126C188.52,-126 198.11,-126 207.9,-126"/>
<polygon fill="#6366f1" stroke="#6366f1" points="207.65,-128.45 214.65,-126 207.65,-123.55 207.65,-128.45"/>
</g>
<!-- edgeStyleAttrs -->
<g id="node7" class="node">
<title>edgeStyleAttrs</title>
<path fill="#eef2ff" stroke="black" d="M322.12,-90C322.12,-90 248.38,-90 248.38,-90 242.38,-90 236.38,-84 236.38,-78 236.38,-78 236.38,-66 236.38,-66 236.38,-60 242.38,-54 248.38,-54 248.38,-54 322.12,-54 322.12,-54 328.12,-54 334.12,-60 334.12,-66 334.12,-66 334.12,-78 334.12,-78 334.12,-84 328.12,-90 322.12,-90"/>
<text xml:space="preserve" text-anchor="middle" x="285.25" y="-68.3" font-family="Helvetica,sans-Serif" font-size="11.00">edgeStyleAttrs</text>
</g>
<!-- buildDot&#45;&gt;edgeStyleAttrs -->
<g id="edge6" class="edge">
<title>buildDot&#45;&gt;edgeStyleAttrs</title>
<path fill="none" stroke="#6366f1" d="M179.94,-112.93C194.84,-107.08 212.8,-100.03 229.59,-93.45"/>
<polygon fill="#6366f1" stroke="#6366f1" points="230.17,-95.85 235.79,-91.01 228.38,-91.29 230.17,-95.85"/>
</g>
<!-- depthColor -->
<g id="node8" class="node">
<title>depthColor</title>
<path fill="#eef2ff" stroke="black" d="M311.25,-36C311.25,-36 259.25,-36 259.25,-36 253.25,-36 247.25,-30 247.25,-24 247.25,-24 247.25,-12 247.25,-12 247.25,-6 253.25,0 259.25,0 259.25,0 311.25,0 311.25,0 317.25,0 323.25,-6 323.25,-12 323.25,-12 323.25,-24 323.25,-24 323.25,-30 317.25,-36 311.25,-36"/>
<text xml:space="preserve" text-anchor="middle" x="285.25" y="-14.3" font-family="Helvetica,sans-Serif" font-size="11.00">depthColor</text>
</g>
<!-- buildDot&#45;&gt;depthColor -->
<g id="edge7" class="edge">
<title>buildDot&#45;&gt;depthColor</title>
<path fill="none" stroke="#6366f1" d="M158.52,-107.65C171.06,-89.57 192.3,-62.24 216.5,-45 223.53,-39.99 231.61,-35.74 239.7,-32.19"/>
<polygon fill="#6366f1" stroke="#6366f1" points="240.16,-34.65 245.69,-29.71 238.29,-30.12 240.16,-34.65"/>
</g>
<!-- main -->
<g id="node2" class="node">
<title>main</title>
<path fill="#eef2ff" stroke="black" d="M42,-171C42,-171 12,-171 12,-171 6,-171 0,-165 0,-159 0,-159 0,-147 0,-147 0,-141 6,-135 12,-135 12,-135 42,-135 42,-135 48,-135 54,-141 54,-147 54,-147 54,-159 54,-159 54,-165 48,-171 42,-171"/>
<text xml:space="preserve" text-anchor="middle" x="27" y="-149.3" font-family="Helvetica,sans-Serif" font-size="11.00">main</text>
</g>
<!-- main&#45;&gt;buildDot -->
<g id="edge1" class="edge">
<title>main&#45;&gt;buildDot</title>
<path fill="none" stroke="#6366f1" d="M54.46,-146.87C68.89,-143.53 87.06,-139.33 103.3,-135.57"/>
<polygon fill="#6366f1" stroke="#6366f1" points="103.85,-137.96 110.12,-133.99 102.74,-133.18 103.85,-137.96"/>
</g>
<!-- run.js -->
<g id="node3" class="node">
<title>run.js</title>
<path fill="#eef2ff" stroke="black" d="M42,-117C42,-117 12,-117 12,-117 6,-117 0,-111 0,-105 0,-105 0,-93 0,-93 0,-87 6,-81 12,-81 12,-81 42,-81 42,-81 48,-81 54,-87 54,-93 54,-93 54,-105 54,-105 54,-111 48,-117 42,-117"/>
<text xml:space="preserve" text-anchor="middle" x="27" y="-95.3" font-family="Helvetica,sans-Serif" font-size="11.00">run.js</text>
</g>
<!-- run.js&#45;&gt;buildDot -->
<g id="edge2" class="edge">
<title>run.js&#45;&gt;buildDot</title>
<path fill="none" stroke="#9ca3af" stroke-dasharray="1,5" d="M54.46,-105.13C68.89,-108.47 87.06,-112.67 103.3,-116.43"/>
<polygon fill="#9ca3af" stroke="#9ca3af" points="102.74,-118.82 110.12,-118.01 103.85,-114.04 102.74,-118.82"/>
<text xml:space="preserve" text-anchor="middle" x="82.88" y="-118.07" font-family="Times,serif" font-size="14.00">file</text>
</g>
</g>
</svg>
