<?xml version="1.0" encoding="UTF-8" standalone="no"?>
<!DOCTYPE svg PUBLIC "-//W3C//DTD SVG 1.1//EN"
 "http://www.w3.org/Graphics/SVG/1.1/DTD/svg11.dtd">
<!-- Generated by graphviz version 15.0.0 (20260523.1842)
 -->
<!-- Title: callgraph Pages: 1 -->
<svg width="450pt" height="370pt"
 viewBox="0.00 0.00 450.00 370.00" xmlns="http://www.w3.org/2000/svg" xmlns:xlink="http://www.w3.org/1999/xlink">
<g id="graph0" class="graph" transform="scale(1 1) rotate(0) translate(14.4 355.4)">
<title>callgraph</title>
<polygon fill="white" stroke="none" points="-14.4,14.4 -14.4,-355.4 435.55,-355.4 435.55,14.4 -14.4,14.4"/>
<!-- buildDot -->
<g id="node1" class="node">
<title>buildDot</title>
<path fill="#e2e8f0" stroke="#94a3b8" stroke-width="1.5" d="M203.85,-188C203.85,-188 147.3,-188 147.3,-188 141.3,-188 135.3,-182 135.3,-176 135.3,-176 135.3,-164 135.3,-164 135.3,-158 141.3,-152 147.3,-152 147.3,-152 203.85,-152 203.85,-152 209.85,-152 215.85,-158 215.85,-164 215.85,-164 215.85,-176 215.85,-176 215.85,-182 209.85,-188 203.85,-188"/>
<text xml:space="preserve" text-anchor="middle" x="175.57" y="-166.3" font-family="Helvetica,sans-Serif" font-weight="bold" font-size="11.00" fill="#0f172a">buildDot</text>
</g>
<!-- dedupeNodes -->
<g id="node4" class="node">
<title>dedupeNodes</title>
<g id="a_node4"><a xlink:title="render/callgraph.js">
<path fill="#f8fafc" stroke="#cbd5e1" stroke-width="1.1" d="M385.9,-341C385.9,-341 306.1,-341 306.1,-341 300.1,-341 294.1,-335 294.1,-329 294.1,-329 294.1,-317 294.1,-317 294.1,-311 300.1,-305 306.1,-305 306.1,-305 385.9,-305 385.9,-305 391.9,-305 397.9,-311 397.9,-317 397.9,-317 397.9,-329 397.9,-329 397.9,-335 391.9,-341 385.9,-341"/>
<text xml:space="preserve" text-anchor="middle" x="346" y="-319.3" font-family="Helvetica,sans-Serif" font-size="11.00" fill="#334155">dedupeNodes</text>
</a>
</g>
</g>
<!-- buildDot&#45;&gt;dedupeNodes -->
<g id="edge3" class="edge">
<title>buildDot&#45;&gt;dedupeNodes</title>
<path fill="none" stroke="#94a3b8" d="M190.89,-188.68C217.27,-223.09 270.85,-293 270.85,-293 270.85,-293 280.25,-296.8 292.35,-301.7"/>
<polygon fill="#94a3b8" stroke="#94a3b8" points="291.55,-303.64 297.9,-303.95 293.13,-299.75 291.55,-303.64"/>
</g>
<!-- dedupeEdges -->
<g id="node5" class="node">
<title>dedupeEdges</title>
<g id="a_node5"><a xlink:title="render/callgraph.js">
<path fill="#f8fafc" stroke="#cbd5e1" stroke-width="1.1" d="M385.15,-280C385.15,-280 306.85,-280 306.85,-280 300.85,-280 294.85,-274 294.85,-268 294.85,-268 294.85,-256 294.85,-256 294.85,-250 300.85,-244 306.85,-244 306.85,-244 385.15,-244 385.15,-244 391.15,-244 397.15,-250 397.15,-256 397.15,-256 397.15,-268 397.15,-268 397.15,-274 391.15,-280 385.15,-280"/>
<text xml:space="preserve" text-anchor="middle" x="346" y="-258.3" font-family="Helvetica,sans-Serif" font-size="11.00" fill="#334155">dedupeEdges</text>
</a>
</g>
</g>
<!-- buildDot&#45;&gt;dedupeEdges -->
<g id="edge4" class="edge">
<title>buildDot&#45;&gt;dedupeEdges</title>
<path fill="none" stroke="#94a3b8" d="M204.86,-188.6C232.63,-206.86 270.85,-232 270.85,-232 270.85,-232 280.25,-235.8 292.35,-240.7"/>
<polygon fill="#94a3b8" stroke="#94a3b8" points="291.55,-242.64 297.9,-242.95 293.13,-238.75 291.55,-242.64"/>
</g>
<!-- allocateRenderBudget -->
<g id="node6" class="node">
<title>allocateRenderBudget</title>
<g id="a_node6"><a xlink:title="render/callgraph.js">
<path fill="#f8fafc" stroke="#cbd5e1" stroke-width="1.1" d="M409.15,-219C409.15,-219 282.85,-219 282.85,-219 276.85,-219 270.85,-213 270.85,-207 270.85,-207 270.85,-195 270.85,-195 270.85,-189 276.85,-183 282.85,-183 282.85,-183 409.15,-183 409.15,-183 415.15,-183 421.15,-189 421.15,-195 421.15,-195 421.15,-207 421.15,-207 421.15,-213 415.15,-219 409.15,-219"/>
<text xml:space="preserve" text-anchor="middle" x="346" y="-197.3" font-family="Helvetica,sans-Serif" font-size="11.00" fill="#334155">allocateRenderBudget</text>
</a>
</g>
</g>
<!-- buildDot&#45;&gt;allocateRenderBudget -->
<g id="edge5" class="edge">
<title>buildDot&#45;&gt;allocateRenderBudget</title>
<path fill="none" stroke="#94a3b8" d="M216.49,-177.35C230.62,-179.95 247.07,-182.98 263.4,-185.98"/>
<polygon fill="#94a3b8" stroke="#94a3b8" points="262.61,-187.97 268.89,-186.99 263.37,-183.84 262.61,-187.97"/>
</g>
<!-- nodeIdentities -->
<g id="node7" class="node">
<title>nodeIdentities</title>
<g id="a_node7"><a xlink:title="render/callgraph.js">
<path fill="#f8fafc" stroke="#cbd5e1" stroke-width="1.1" d="M387.4,-158C387.4,-158 304.6,-158 304.6,-158 298.6,-158 292.6,-152 292.6,-146 292.6,-146 292.6,-134 292.6,-134 292.6,-128 298.6,-122 304.6,-122 304.6,-122 387.4,-122 387.4,-122 393.4,-122 399.4,-128 399.4,-134 399.4,-134 399.4,-146 399.4,-146 399.4,-152 393.4,-158 387.4,-158"/>
<text xml:space="preserve" text-anchor="middle" x="346" y="-136.3" font-family="Helvetica,sans-Serif" font-size="11.00" fill="#334155">nodeIdentities</text>
</a>
</g>
</g>
<!-- buildDot&#45;&gt;nodeIdentities -->
<g id="edge6" class="edge">
<title>buildDot&#45;&gt;nodeIdentities</title>
<path fill="none" stroke="#94a3b8" d="M216.49,-162.89C236.94,-159.25 262.27,-154.74 285.01,-150.68"/>
<polygon fill="#94a3b8" stroke="#94a3b8" points="285.27,-152.77 290.81,-149.65 284.53,-148.64 285.27,-152.77"/>
</g>
<!-- edgeStyleAttrs -->
<g id="node8" class="node">
<title>edgeStyleAttrs</title>
<g id="a_node8"><a xlink:title="render/callgraph.js">
<path fill="#f8fafc" stroke="#cbd5e1" stroke-width="1.1" d="M389.27,-97C389.27,-97 302.73,-97 302.73,-97 296.73,-97 290.73,-91 290.73,-85 290.73,-85 290.73,-73 290.73,-73 290.73,-67 296.73,-61 302.73,-61 302.73,-61 389.27,-61 389.27,-61 395.27,-61 401.27,-67 401.27,-73 401.27,-73 401.27,-85 401.27,-85 401.27,-91 395.27,-97 389.27,-97"/>
<text xml:space="preserve" text-anchor="middle" x="346" y="-75.3" font-family="Helvetica,sans-Serif" font-size="11.00" fill="#334155">edgeStyleAttrs</text>
</a>
</g>
</g>
<!-- buildDot&#45;&gt;edgeStyleAttrs -->
<g id="edge7" class="edge">
<title>buildDot&#45;&gt;edgeStyleAttrs</title>
<path fill="none" stroke="#94a3b8" d="M205.37,-151.37C233.1,-133.43 270.85,-109 270.85,-109 270.85,-109 280.25,-105.2 292.35,-100.3"/>
<polygon fill="#94a3b8" stroke="#94a3b8" points="293.13,-102.25 297.9,-98.05 291.55,-98.36 293.13,-102.25"/>
</g>
<!-- depthColor -->
<g id="node9" class="node">
<title>depthColor</title>
<g id="a_node9"><a xlink:title="render/callgraph.js">
<path fill="#f8fafc" stroke="#cbd5e1" stroke-width="1.1" d="M378.4,-36C378.4,-36 313.6,-36 313.6,-36 307.6,-36 301.6,-30 301.6,-24 301.6,-24 301.6,-12 301.6,-12 301.6,-6 307.6,0 313.6,0 313.6,0 378.4,0 378.4,0 384.4,0 390.4,-6 390.4,-12 390.4,-12 390.4,-24 390.4,-24 390.4,-30 384.4,-36 378.4,-36"/>
<text xml:space="preserve" text-anchor="middle" x="346" y="-14.3" font-family="Helvetica,sans-Serif" font-size="11.00" fill="#334155">depthColor</text>
</a>
</g>
</g>
<!-- buildDot&#45;&gt;depthColor -->
<g id="edge8" class="edge">
<title>buildDot&#45;&gt;depthColor</title>
<path fill="none" stroke="#94a3b8" d="M190.89,-151.47C217.27,-117.34 270.85,-48 270.85,-48 270.85,-48 281.52,-43.68 294.76,-38.32"/>
<polygon fill="#94a3b8" stroke="#94a3b8" points="295.26,-40.39 300.03,-36.19 293.69,-36.5 295.26,-40.39"/>
</g>
<!-- run.js -->
<g id="node2" class="node">
<title>run.js</title>
<g id="a_node2"><a xlink:title="test/run.js">
<path fill="#f8fafc" stroke="#cbd5e1" stroke-width="1.1" d="M47.55,-219C47.55,-219 12,-219 12,-219 6,-219 0,-213 0,-207 0,-207 0,-195 0,-195 0,-189 6,-183 12,-183 12,-183 47.55,-183 47.55,-183 53.55,-183 59.55,-189 59.55,-195 59.55,-195 59.55,-207 59.55,-207 59.55,-213 53.55,-219 47.55,-219"/>
<text xml:space="preserve" text-anchor="middle" x="29.77" y="-197.3" font-family="Helvetica,sans-Serif" font-size="11.00" fill="#334155">run.js</text>
</a>
</g>
</g>
<!-- run.js&#45;&gt;buildDot -->
<g id="edge1" class="edge">
<title>run.js&#45;&gt;buildDot</title>
<path fill="none" stroke="#9ca3af" stroke-dasharray="1,5" d="M59.88,-194.73C79.28,-190.54 105.22,-184.95 127.52,-180.14"/>
<polygon fill="#9ca3af" stroke="#9ca3af" points="127.72,-182.25 133.14,-178.93 126.83,-178.14 127.72,-182.25"/>
<text xml:space="preserve" text-anchor="middle" x="97.42" y="-192.23" font-family="Times,serif" font-size="14.00">file</text>
</g>
<!-- main -->
<g id="node3" class="node">
<title>main</title>
<g id="a_node3"><a xlink:title="render/callgraph.js">
<path fill="#f8fafc" stroke="#cbd5e1" stroke-width="1.1" d="M45.67,-158C45.67,-158 13.87,-158 13.87,-158 7.87,-158 1.87,-152 1.87,-146 1.87,-146 1.87,-134 1.87,-134 1.87,-128 7.87,-122 13.87,-122 13.87,-122 45.67,-122 45.67,-122 51.67,-122 57.67,-128 57.67,-134 57.67,-134 57.67,-146 57.67,-146 57.67,-152 51.67,-158 45.67,-158"/>
<text xml:space="preserve" text-anchor="middle" x="29.77" y="-136.3" font-family="Helvetica,sans-Serif" font-size="11.00" fill="#334155">main</text>
</a>
</g>
</g>
<!-- main&#45;&gt;buildDot -->
<g id="edge2" class="edge">
<title>main&#45;&gt;buildDot</title>
<path fill="none" stroke="#94a3b8" d="M58.16,-145.71C77.72,-149.79 104.53,-155.39 127.48,-160.18"/>
<polygon fill="#94a3b8" stroke="#94a3b8" points="127,-162.22 133.31,-161.39 127.86,-158.11 127,-162.22"/>
</g>
</g>
</svg>
