<?xml version="1.0" encoding="UTF-8" standalone="no"?>
<!DOCTYPE svg PUBLIC "-//W3C//DTD SVG 1.1//EN"
 "http://www.w3.org/Graphics/SVG/1.1/DTD/svg11.dtd">
<!-- Generated by graphviz version 15.0.0 (20260523.1842)
 -->
<!-- Title: callgraph Pages: 1 -->
<svg width="450pt" height="309pt"
 viewBox="0.00 0.00 450.00 309.00" xmlns="http://www.w3.org/2000/svg" xmlns:xlink="http://www.w3.org/1999/xlink">
<g id="graph0" class="graph" transform="scale(1 1) rotate(0) translate(14.4 294.4)">
<title>callgraph</title>
<polygon fill="white" stroke="none" points="-14.4,14.4 -14.4,-294.4 435.55,-294.4 435.55,14.4 -14.4,14.4"/>
<!-- buildDot -->
<g id="node1" class="node">
<title>buildDot</title>
<path fill="#e2e8f0" stroke="#94a3b8" stroke-width="1.5" d="M203.85,-158C203.85,-158 147.3,-158 147.3,-158 141.3,-158 135.3,-152 135.3,-146 135.3,-146 135.3,-134 135.3,-134 135.3,-128 141.3,-122 147.3,-122 147.3,-122 203.85,-122 203.85,-122 209.85,-122 215.85,-128 215.85,-134 215.85,-134 215.85,-146 215.85,-146 215.85,-152 209.85,-158 203.85,-158"/>
<text xml:space="preserve" text-anchor="middle" x="175.57" y="-136.3" font-family="Helvetica,sans-Serif" font-weight="bold" font-size="11.00" fill="#0f172a">buildDot</text>
</g>
<!-- dedupeNodes -->
<g id="node4" class="node">
<title>dedupeNodes</title>
<path fill="#f8fafc" stroke="#cbd5e1" stroke-width="1.1" d="M385.9,-280C385.9,-280 306.1,-280 306.1,-280 300.1,-280 294.1,-274 294.1,-268 294.1,-268 294.1,-256 294.1,-256 294.1,-250 300.1,-244 306.1,-244 306.1,-244 385.9,-244 385.9,-244 391.9,-244 397.9,-250 397.9,-256 397.9,-256 397.9,-268 397.9,-268 397.9,-274 391.9,-280 385.9,-280"/>
<text xml:space="preserve" text-anchor="middle" x="346" y="-258.3" font-family="Helvetica,sans-Serif" font-size="11.00" fill="#334155">dedupeNodes</text>
</g>
<!-- buildDot&#45;&gt;dedupeNodes -->
<g id="edge3" class="edge">
<title>buildDot&#45;&gt;dedupeNodes</title>
<path fill="none" stroke="#94a3b8" d="M195.65,-158.62C223.2,-185.5 270.85,-232 270.85,-232 270.85,-232 280.25,-235.8 292.35,-240.7"/>
<polygon fill="#94a3b8" stroke="#94a3b8" points="291.55,-242.64 297.9,-242.95 293.13,-238.75 291.55,-242.64"/>
</g>
<!-- dedupeEdges -->
<g id="node5" class="node">
<title>dedupeEdges</title>
<path fill="#f8fafc" stroke="#cbd5e1" stroke-width="1.1" d="M385.15,-219C385.15,-219 306.85,-219 306.85,-219 300.85,-219 294.85,-213 294.85,-207 294.85,-207 294.85,-195 294.85,-195 294.85,-189 300.85,-183 306.85,-183 306.85,-183 385.15,-183 385.15,-183 391.15,-183 397.15,-189 397.15,-195 397.15,-195 397.15,-207 397.15,-207 397.15,-213 391.15,-219 385.15,-219"/>
<text xml:space="preserve" text-anchor="middle" x="346" y="-197.3" font-family="Helvetica,sans-Serif" font-size="11.00" fill="#334155">dedupeEdges</text>
</g>
<!-- buildDot&#45;&gt;dedupeEdges -->
<g id="edge4" class="edge">
<title>buildDot&#45;&gt;dedupeEdges</title>
<path fill="none" stroke="#94a3b8" d="M216.49,-154.46C237.74,-162.15 264.25,-171.75 287.66,-180.23"/>
<polygon fill="#94a3b8" stroke="#94a3b8" points="286.72,-182.12 293.07,-182.19 288.15,-178.18 286.72,-182.12"/>
</g>
<!-- allocateRenderBudget -->
<g id="node6" class="node">
<title>allocateRenderBudget</title>
<path fill="#f8fafc" stroke="#cbd5e1" stroke-width="1.1" d="M409.15,-158C409.15,-158 282.85,-158 282.85,-158 276.85,-158 270.85,-152 270.85,-146 270.85,-146 270.85,-134 270.85,-134 270.85,-128 276.85,-122 282.85,-122 282.85,-122 409.15,-122 409.15,-122 415.15,-122 421.15,-128 421.15,-134 421.15,-134 421.15,-146 421.15,-146 421.15,-152 415.15,-158 409.15,-158"/>
<text xml:space="preserve" text-anchor="middle" x="346" y="-136.3" font-family="Helvetica,sans-Serif" font-size="11.00" fill="#334155">allocateRenderBudget</text>
</g>
<!-- buildDot&#45;&gt;allocateRenderBudget -->
<g id="edge5" class="edge">
<title>buildDot&#45;&gt;allocateRenderBudget</title>
<path fill="none" stroke="#94a3b8" d="M216.49,-140C230.49,-140 246.78,-140 262.96,-140"/>
<polygon fill="#94a3b8" stroke="#94a3b8" points="262.87,-142.1 268.87,-140 262.87,-137.9 262.87,-142.1"/>
</g>
<!-- edgeStyleAttrs -->
<g id="node7" class="node">
<title>edgeStyleAttrs</title>
<path fill="#f8fafc" stroke="#cbd5e1" stroke-width="1.1" d="M389.27,-97C389.27,-97 302.73,-97 302.73,-97 296.73,-97 290.73,-91 290.73,-85 290.73,-85 290.73,-73 290.73,-73 290.73,-67 296.73,-61 302.73,-61 302.73,-61 389.27,-61 389.27,-61 395.27,-61 401.27,-67 401.27,-73 401.27,-73 401.27,-85 401.27,-85 401.27,-91 395.27,-97 389.27,-97"/>
<text xml:space="preserve" text-anchor="middle" x="346" y="-75.3" font-family="Helvetica,sans-Serif" font-size="11.00" fill="#334155">edgeStyleAttrs</text>
</g>
<!-- buildDot&#45;&gt;edgeStyleAttrs -->
<g id="edge6" class="edge">
<title>buildDot&#45;&gt;edgeStyleAttrs</title>
<path fill="none" stroke="#94a3b8" d="M216.49,-125.54C237.56,-117.91 263.81,-108.41 287.07,-99.98"/>
<polygon fill="#94a3b8" stroke="#94a3b8" points="287.52,-102.05 292.45,-98.03 286.09,-98.1 287.52,-102.05"/>
</g>
<!-- depthColor -->
<g id="node8" class="node">
<title>depthColor</title>
<path fill="#f8fafc" stroke="#cbd5e1" stroke-width="1.1" d="M378.4,-36C378.4,-36 313.6,-36 313.6,-36 307.6,-36 301.6,-30 301.6,-24 301.6,-24 301.6,-12 301.6,-12 301.6,-6 307.6,0 313.6,0 313.6,0 378.4,0 378.4,0 384.4,0 390.4,-6 390.4,-12 390.4,-12 390.4,-24 390.4,-24 390.4,-30 384.4,-36 378.4,-36"/>
<text xml:space="preserve" text-anchor="middle" x="346" y="-14.3" font-family="Helvetica,sans-Serif" font-size="11.00" fill="#334155">depthColor</text>
</g>
<!-- buildDot&#45;&gt;depthColor -->
<g id="edge7" class="edge">
<title>buildDot&#45;&gt;depthColor</title>
<path fill="none" stroke="#94a3b8" d="M195.65,-121.38C223.2,-94.5 270.85,-48 270.85,-48 270.85,-48 281.52,-43.68 294.76,-38.32"/>
<polygon fill="#94a3b8" stroke="#94a3b8" points="295.26,-40.39 300.03,-36.19 293.69,-36.5 295.26,-40.39"/>
</g>
<!-- main -->
<g id="node2" class="node">
<title>main</title>
<path fill="#f8fafc" stroke="#cbd5e1" stroke-width="1.1" d="M45.67,-189C45.67,-189 13.87,-189 13.87,-189 7.87,-189 1.87,-183 1.87,-177 1.87,-177 1.87,-165 1.87,-165 1.87,-159 7.87,-153 13.87,-153 13.87,-153 45.67,-153 45.67,-153 51.67,-153 57.67,-159 57.67,-165 57.67,-165 57.67,-177 57.67,-177 57.67,-183 51.67,-189 45.67,-189"/>
<text xml:space="preserve" text-anchor="middle" x="29.77" y="-167.3" font-family="Helvetica,sans-Serif" font-size="11.00" fill="#334155">main</text>
</g>
<!-- main&#45;&gt;buildDot -->
<g id="edge1" class="edge">
<title>main&#45;&gt;buildDot</title>
<path fill="none" stroke="#94a3b8" d="M58.16,-165.1C77.72,-160.88 104.53,-155.1 127.48,-150.15"/>
<polygon fill="#94a3b8" stroke="#94a3b8" points="127.89,-152.21 133.31,-148.9 127,-148.11 127.89,-152.21"/>
</g>
<!-- run.js -->
<g id="node3" class="node">
<title>run.js</title>
<path fill="#f8fafc" stroke="#cbd5e1" stroke-width="1.1" d="M47.55,-128C47.55,-128 12,-128 12,-128 6,-128 0,-122 0,-116 0,-116 0,-104 0,-104 0,-98 6,-92 12,-92 12,-92 47.55,-92 47.55,-92 53.55,-92 59.55,-98 59.55,-104 59.55,-104 59.55,-116 59.55,-116 59.55,-122 53.55,-128 47.55,-128"/>
<text xml:space="preserve" text-anchor="middle" x="29.77" y="-106.3" font-family="Helvetica,sans-Serif" font-size="11.00" fill="#334155">run.js</text>
</g>
<!-- run.js&#45;&gt;buildDot -->
<g id="edge2" class="edge">
<title>run.js&#45;&gt;buildDot</title>
<path fill="none" stroke="#9ca3af" stroke-dasharray="1,5" d="M59.88,-116.07C79.28,-120.12 105.22,-125.53 127.52,-130.18"/>
<polygon fill="#9ca3af" stroke="#9ca3af" points="126.84,-132.19 133.14,-131.36 127.69,-128.07 126.84,-132.19"/>
<text xml:space="preserve" text-anchor="middle" x="97.42" y="-129.85" font-family="Times,serif" font-size="14.00">file</text>
</g>
</g>
</svg>
